<svg id="Layer_1" data-name="Layer 1" xmlns="http://www.w3.org/2000/svg" viewBox="0 0 1000 1000"><defs><style>.cls-1{fill:none;stroke:#000;stroke-linecap:round;stroke-linejoin:round;stroke-width:24px;}</style></defs><title>Artboard 1</title><path class="cls-1" d="M225.81,282.5c.3,44.76-1.21,158.07-.91,202.84.3,45.43.61,92.67.91,138.11a551.17,551.17,0,0,1-95.61,0c-33.84-3.07-60.87-13.79-77.57-54.12C41.52,542.52,49,506.19,83.3,479.13c29.76-23.5,70.35-21.64,140.71-19.84"/><path class="cls-1" d="M462.42,455.41c.3,45.59,1.5,119.12,1.81,164.7-38.66,3.63-76,1.81-95.93,0-27-3.87-38.65-13.92-48.68-23.72C299.46,576.7,298,546,298,535.06c0-25.26,12.54-53.16,34.27-66.75,28.87-18,59.59-14.71,130.18-12.9"/><path class="cls-1" d="M642.53,450.27c-28.86,0-45.11-1.24-95.61,0"/><path class="cls-1" d="M542.16,451.75c-.31,46.43-1.53,121.33-1.84,167.77"/><path class="cls-1" d="M905.91,452c-.31,46.8.31,121,0,167.77"/><line class="cls-1" x1="905.91" y1="378.11" x2="905.91" y2="378.11"/><path class="cls-1" d="M828.63,623.72c-38.65,3.62-76,1.81-95.92,0-27-3.88-38.66-13.92-48.69-23.72-20.16-19.69-21.65-50.36-21.65-61.33,0-25.26,12.54-53.17,34.28-66.75,28.86-18,59.59-14.71,130.17-12.9"/></svg>