<svg id="Layer_1" data-name="Layer 1" xmlns="http://www.w3.org/2000/svg" xmlns:xlink="http://www.w3.org/1999/xlink" viewBox="0 0 1000 1000"><defs><style>.cls-1{stroke:aqua;stroke-miterlimit:10;fill:url(#linear-gradient);}.cls-1,.cls-2{stroke-linecap:round;}.cls-2{fill:none;stroke:#fff;stroke-linejoin:round;stroke-width:28px;}</style><linearGradient id="linear-gradient" x1="73.51" y1="499.6" x2="957.68" y2="499.6" gradientUnits="userSpaceOnUse"><stop offset="0" stop-color="#ffca3f"/><stop offset="0.12" stop-color="#fbb944"/><stop offset="0.37" stop-color="#f28b50"/><stop offset="0.71" stop-color="#e24364"/><stop offset="1" stop-color="#d40076"/><stop offset="1" stop-color="#3f00e9"/></linearGradient></defs><title>Artboard 1</title><circle class="cls-1" cx="515.59" cy="499.6" r="442.08"/><path class="cls-2" d="M295.89,333.72c.22,33.17-.9,117.15-.67,150.33.22,33.67.44,68.69.67,102.36a408.19,408.19,0,0,1-70.86,0c-25.08-2.28-45.11-10.22-57.49-40.11-8.23-19.87-2.68-46.79,22.73-66.85,22.06-17.42,52.14-16,104.28-14.71"/><path class="cls-2" d="M471.25,461.87c.22,33.79,1.11,88.28,1.34,122.07a411,411,0,0,1-71.1,0c-20-2.88-28.64-10.32-36.08-17.58-14.94-14.6-16-37.33-16-45.46,0-18.72,9.29-39.4,25.4-49.47,21.39-13.37,44.16-10.9,96.48-9.56"/><path class="cls-2" d="M604.73,458.06c-21.39,0-33.43-.92-70.86,0"/><path class="cls-2" d="M530.35,459.16c-.23,34.41-1.14,89.92-1.36,124.33"/><path class="cls-2" d="M799.93,459.35c-.23,34.68.23,89.65,0,124.34"/><line class="cls-2" x1="799.93" y1="404.58" x2="799.93" y2="404.58"/><path class="cls-2" d="M742.66,586.61a410.83,410.83,0,0,1-71.09,0c-20-2.87-28.65-10.32-36.09-17.58-14.94-14.59-16-37.33-16-45.46,0-18.72,9.29-39.4,25.4-49.47,21.39-13.37,44.16-10.9,96.48-9.56"/></svg>